<svg width="105" height="64" viewBox="0 0 105 64" fill="none" xmlns="http://www.w3.org/2000/svg">
<path d="M0.0488281 48.0447V36.1009C0.0488281 35.047 0.637373 34.467 1.67551 34.467C2.2232 34.467 2.73003 34.7284 3.0243 35.2186L9.18774 44.7116H9.21229V35.6516C9.21229 34.9654 9.69455 34.4507 10.4139 34.4507C11.0678 34.4507 11.5583 34.949 11.5583 35.6352V47.7915C11.5583 48.7146 11.0515 49.2293 10.1441 49.2293C9.63731 49.2293 9.21225 48.9924 8.91797 48.5431L2.43572 38.5109H2.41123V48.0447C2.41123 48.7309 1.87987 49.2456 1.20957 49.2456C0.490229 49.2456 0.0488281 48.7309 0.0488281 48.0447Z" fill="white"/>
<path d="M26.3379 48.0447C26.3379 48.7555 25.8066 49.2456 25.1363 49.2456C24.4987 49.2456 23.951 48.927 23.7385 48.0856L22.9538 45.6837H17.3789L16.6187 48.0447C16.3898 48.9025 15.8584 49.2456 15.2699 49.2456C14.3625 49.2456 13.962 48.4123 14.2317 47.5954L18.2617 35.8885C18.5805 34.9653 19.2999 34.4507 20.2481 34.4507C21.1963 34.4507 21.8748 34.9653 22.1936 35.8885L26.248 47.5055C26.3134 47.6771 26.3298 47.914 26.3298 48.0447M17.9102 43.4943H22.4306L20.1745 37.0077H20.15L17.9102 43.4943Z" fill="white"/>
<path d="M31.3239 47.8568L27.3757 36.1989C27.0405 35.2104 27.7354 34.4588 28.561 34.4588C29.1904 34.4588 29.6563 34.8265 29.8689 35.4474L33.2939 45.839H33.3757L36.8416 35.333C37.0296 34.7775 37.4547 34.4507 38.0269 34.4507C38.9179 34.4507 39.441 35.1778 39.1222 36.1009L35.1495 47.8486C34.8552 48.731 34.1604 49.2456 33.2286 49.2456C32.2967 49.2456 31.6264 48.731 31.3239 47.8486" fill="white"/>
<path d="M41.4355 48.6492C40.9532 48.4368 40.6753 48.0937 40.6753 47.6199C40.6753 47.0644 41.1167 46.5252 41.7952 46.5252C42.5145 46.5252 43.2093 47.2522 44.9831 47.2522C46.291 47.2522 47.223 46.6314 47.223 45.2998C47.223 42.2525 40.9532 43.192 40.9532 38.4292C40.9532 35.6843 43.0622 34.3281 45.727 34.3281C46.6998 34.3281 47.7134 34.5242 48.5962 34.8673C49.2338 35.0797 49.4627 35.4637 49.4627 35.8967C49.4627 36.4358 49.0867 36.9505 48.4491 36.9505C47.9178 36.9505 47.1412 36.4113 45.7679 36.4113C44.5009 36.4113 43.6099 37.0322 43.6099 38.2413C43.6099 41.313 49.8796 40.3245 49.8796 45.071C49.8796 47.9467 47.6398 49.4335 44.9178 49.4335C43.757 49.4335 42.4246 49.1721 41.4355 48.6574" fill="white"/>
<path d="M58.185 49.4417C54.6618 49.4417 52.5283 47.6608 52.5283 43.7721V35.7823C52.5283 35.0062 53.1005 34.4507 53.8607 34.4507C54.621 34.4507 55.1523 35.0062 55.1523 35.7823V44.0743C55.1523 46.2638 56.313 47.2523 58.2994 47.2523C60.2858 47.2523 61.4056 46.2638 61.4056 44.1152V35.7578C61.4056 35.0062 61.9779 34.4507 62.7381 34.4507C63.4574 34.4507 64.0296 35.0062 64.0296 35.7578V43.7639C64.0296 47.481 61.8307 49.4335 58.2013 49.4335" fill="white"/>
<path d="M67.6182 48.0447V36.1009C67.6182 35.047 68.2068 34.467 69.2449 34.467C69.7926 34.467 70.2994 34.7284 70.5936 35.2186L76.7571 44.7116H76.7816V35.6516C76.7816 34.9654 77.2639 34.4507 77.9833 34.4507C78.6372 34.4507 79.1277 34.949 79.1277 35.6352V47.7915C79.1277 48.7146 78.6209 49.2293 77.7135 49.2293C77.2067 49.2293 76.7816 48.9924 76.4874 48.5431L70.0051 38.5109H69.9806V48.0447C69.9806 48.7309 69.4493 49.2456 68.779 49.2456C68.0596 49.2456 67.6182 48.7309 67.6182 48.0447Z" fill="white"/>
<path d="M82.8882 47.767V35.8068C82.8882 35.0307 83.4767 34.4507 84.2206 34.4507C84.9644 34.4507 85.553 35.0307 85.553 35.8068V46.8928H90.8091C91.4222 46.8928 91.8881 47.3667 91.8881 48.012C91.8881 48.6574 91.4222 49.1313 90.8091 49.1313H84.2206C83.4358 49.1313 82.8882 48.5921 82.8882 47.7751" fill="white"/>
<path d="M95.4354 34.4507C96.1711 34.4507 96.7433 35.0307 96.7433 35.7823V47.8977C96.7433 48.6738 96.1711 49.2538 95.4354 49.2538C94.6998 49.2538 94.103 48.6738 94.103 47.8977V35.7823C94.103 35.0307 94.6916 34.4507 95.4354 34.4507Z" fill="white"/>
<path d="M78.8579 14.3784V14.411C78.1222 14.362 77.3865 14.3212 76.6426 14.2885C73.8552 14.1823 71.1086 14.2231 68.4519 14.411C68.4438 14.2722 68.4438 14.1251 68.4519 13.9781C68.5582 11.0534 70.9778 8.77407 73.8552 8.88027C76.7325 8.99465 78.9723 11.4537 78.866 14.3784" fill="white"/>
<path d="M66.2858 13.4878C66.1877 13.4878 66.0815 13.4715 65.9834 13.4306L59.9916 11.0615C59.5584 10.8899 59.3458 10.3997 59.5175 9.95858C59.681 9.51743 60.1715 9.30503 60.6047 9.47659L66.5965 11.8457C67.0297 12.0173 67.2422 12.5075 67.0706 12.9486C66.9398 13.2836 66.6292 13.4878 66.294 13.4878" fill="white"/>
<path d="M68.6559 9.56654C68.5741 9.50935 68.5005 9.43581 68.4351 9.34595L64.8139 3.94592C64.5523 3.55379 64.6504 3.03093 65.0346 2.76134C65.4188 2.49991 65.9338 2.59794 66.1954 2.9819L69.8166 8.38195C70.0782 8.77409 69.9801 9.29695 69.5959 9.56654C69.3017 9.77078 68.9256 9.75444 68.6477 9.56654" fill="white"/>
<path d="M72.7843 7.69567C72.7516 7.59764 72.7271 7.4996 72.7271 7.38523L72.7516 0.849634C72.7516 0.383973 73.1276 0 73.5935 0C74.0595 0 74.4273 0.383973 74.4273 0.849634L74.4028 7.38523C74.4028 7.85089 74.0268 8.23486 73.5608 8.23486C73.2094 8.23486 72.9069 8.00611 72.7843 7.6875" fill="white"/>
<path d="M77.2313 8.53694C77.2559 8.4389 77.2967 8.34086 77.354 8.251L81.0161 2.87548C81.2776 2.49152 81.8008 2.39347 82.1768 2.66307C82.5528 2.93266 82.6509 3.45552 82.3893 3.84765L78.7272 9.22317C78.4657 9.60714 77.9425 9.70518 77.5665 9.43559C77.2722 9.23135 77.1496 8.87188 77.2313 8.53694Z" fill="white"/>
<path d="M80.4356 11.7885C80.5092 11.7232 80.5991 11.666 80.6972 11.6252L86.7053 9.29685C87.1386 9.13346 87.6209 9.35404 87.7843 9.78702C87.9478 10.2282 87.7353 10.7183 87.302 10.8817L81.2939 13.21C80.8607 13.3734 80.3784 13.1529 80.2149 12.7199C80.0923 12.3849 80.1904 12.0173 80.4356 11.7885Z" fill="white"/>
<path d="M17.3703 29.9659C34.3402 15.8082 66.024 15.5549 67.0785 15.2853C51.5799 14.3295 25.4302 14.3377 0.0488281 29.9169C2.95889 29.9169 13.2749 29.9741 17.3784 29.9741" fill="white"/>
<path d="M44.7629 29.9657C59.9263 14.656 90.8253 15.9223 91.8717 15.6527C76.3731 14.6969 49.553 15.2197 27.981 29.9085C30.891 29.9085 40.6594 29.9657 44.7629 29.9657Z" fill="white"/>
<path d="M101.149 32.3103V32.8903H100.315V35.0961H99.6043V32.8903H98.7705V32.3103H101.157H101.149ZM104.141 35.0961L104.059 33.6828C104.059 33.4132 104.059 33.1027 104.051 32.7351H104.01C103.937 33.0537 103.847 33.4213 103.773 33.7073L103.389 35.0471H102.694L102.335 33.6909C102.285 33.4459 102.212 33.0537 102.138 32.7433H102.097C102.097 33.0701 102.089 33.3968 102.081 33.6909L101.999 35.1043H101.329L101.509 32.3103H102.596L102.915 33.2988C102.98 33.503 103.013 33.7154 103.087 34.1076H103.111C103.176 33.8135 103.234 33.5439 103.291 33.2988L103.626 32.3103H104.656L104.828 35.1043H104.133L104.141 35.0961Z" fill="white"/>
<path d="M2.59125 56.3122C2.32967 56.108 2.10898 56.059 1.93732 56.059C1.29154 56.059 0.90734 56.7861 0.90734 57.9135C0.90734 59.0409 1.31605 59.7353 2.02722 59.7353C2.23975 59.7353 2.40327 59.6699 2.67303 59.4493V60.3153C2.37058 60.5114 2.10899 60.5931 1.79837 60.5931C0.784747 60.5931 0 59.5147 0 57.9461C0 56.3776 0.743875 55.2175 1.79837 55.2175C2.06812 55.2175 2.28063 55.2747 2.59125 55.4054V56.3286V56.3122Z" fill="white"/>
<path d="M4.2261 52.7505H3.34326V60.438H4.2261V52.7505Z" fill="white"/>
<path d="M7.77359 57.8644V58.0932H5.918C5.918 59.1716 6.23682 59.7516 6.80902 59.7516C7.136 59.7516 7.42209 59.58 7.66732 59.2451V60.1274C7.34035 60.4378 7.01337 60.5767 6.63735 60.5767C5.64008 60.5767 5.03516 59.6781 5.03516 57.8808C5.03516 56.1897 5.54198 55.2012 6.4248 55.2012C7.64278 55.2012 7.77359 56.9249 7.77359 57.8563M6.89893 57.4233C6.89893 56.4838 6.7518 55.9854 6.39213 55.9854C6.0488 55.9854 5.918 56.5165 5.918 57.3661V57.4233H6.89893Z" fill="white"/>
<path d="M13.5858 56.7453V60.4379H12.703V56.8106C12.703 56.3368 12.5886 56.0509 12.2289 56.0509C11.9346 56.0509 11.7793 56.2224 11.5259 56.6472V60.4379H10.6431V56.8352C10.6431 56.3286 10.5286 56.0509 10.1608 56.0509C9.89102 56.0509 9.71933 56.247 9.4741 56.6636V60.4379H8.59131V55.3401H9.4741V55.8957H9.49865C9.7684 55.4382 10.03 55.2666 10.4224 55.2666C10.8719 55.2666 11.1662 55.4872 11.4523 56.0264C11.8692 55.4137 12.0818 55.2666 12.4823 55.2666C13.1281 55.2666 13.594 55.7976 13.594 56.7535" fill="white"/>
<path d="M15.5068 53.167C15.5068 53.4693 15.2697 53.6817 15 53.6817C14.7302 53.6817 14.4932 53.4611 14.4932 53.167C14.4932 52.8729 14.722 52.6523 15 52.6523C15.2779 52.6523 15.5068 52.8811 15.5068 53.167ZM15.4414 60.4379H14.5586V55.3401H15.4414V60.4379Z" fill="white"/>
<path d="M19.3814 52.7505V60.438H18.3759C17.0762 60.438 16.2588 59.8171 16.2588 57.9054C16.2588 56.3206 16.8555 55.2504 17.9018 55.2504C18.0735 55.2504 18.286 55.2749 18.4986 55.3402V52.7505H19.3814ZM18.3024 59.6129H18.4904V56.149C18.3432 56.0918 18.1634 56.0591 18.0162 56.0591C17.4604 56.0591 17.1579 56.7045 17.1579 57.9381C17.1579 59.1717 17.5095 59.621 18.3024 59.621" fill="white"/>
<path d="M22.1688 55.5036V56.3777C21.8664 56.1244 21.6375 56.0182 21.4086 56.0182C21.1961 56.0182 21.0571 56.1653 21.0571 56.394C21.0571 56.7617 21.286 57.0966 21.7029 57.6685C22.0462 58.1505 22.3241 58.657 22.3241 59.2534C22.3241 60.0131 21.8173 60.5687 21.1225 60.5687C20.8037 60.5687 20.5013 60.4543 20.1416 60.152V59.1635C20.5013 59.5638 20.7383 59.719 21.0163 59.719C21.2942 59.719 21.4577 59.5229 21.4577 59.2779C21.4577 58.8857 21.2206 58.5181 20.7874 57.9054C20.4032 57.3662 20.1988 56.9251 20.1988 56.3859C20.1988 55.6915 20.6974 55.1931 21.3268 55.1931C21.5966 55.1931 21.8664 55.2585 22.1606 55.4954" fill="white"/>
<path d="M26.0599 57.8971C26.0599 59.58 25.4468 60.5767 24.4904 60.5767C23.534 60.5767 22.9209 59.5718 22.9209 57.8971C22.9209 56.2223 23.5095 55.2012 24.4904 55.2012C25.4713 55.2012 26.0599 56.2469 26.0599 57.8971ZM24.4985 59.7271C24.9154 59.7271 25.1525 59.098 25.1525 57.8971C25.1525 56.6962 24.9155 56.059 24.474 56.059C24.0817 56.059 23.8201 56.6308 23.8201 57.8971C23.8201 59.1634 24.0571 59.7271 24.4985 59.7271Z" fill="white"/>
<path d="M29.8036 55.3403V56.1246H29.1333C29.3213 56.4432 29.4112 56.8517 29.4112 57.3664C29.4112 57.9872 29.2641 58.4447 28.9372 58.8042C28.6919 59.0656 28.4549 59.18 27.9971 59.2535C27.6946 59.3025 27.5475 59.3597 27.5475 59.6211C27.5475 59.8826 27.76 59.9888 28.0788 60.0623C28.3976 60.1277 28.9126 60.2012 29.3131 60.5361C29.6074 60.7812 29.7873 61.1815 29.7873 61.688C29.7873 62.6112 29.0843 63.2647 28.0461 63.2647C27.1306 63.2647 26.3867 62.6929 26.3867 61.8514C26.3867 61.2877 26.7056 60.8302 27.2451 60.5933C26.8609 60.4218 26.681 60.1767 26.681 59.8499C26.681 59.5231 26.9099 59.2127 27.384 59.0329C26.8527 58.6571 26.6156 58.0771 26.6156 57.2847C26.6156 56.0756 27.2042 55.3485 28.087 55.3485H29.8036V55.3403ZM28.0706 62.4968C28.5774 62.4968 28.9862 62.1782 28.9862 61.7289C28.9862 61.2795 28.5529 60.9201 28.0216 60.9201C27.523 60.9201 27.1878 61.255 27.1878 61.7289C27.1878 62.2027 27.5393 62.4968 28.0706 62.4968ZM28.0298 58.5509C28.3894 58.5509 28.6183 58.0934 28.6183 57.3337C28.6183 56.5249 28.3894 56.0184 28.0298 56.0184C27.6701 56.0184 27.4167 56.4759 27.4167 57.2765C27.4167 58.0771 27.6538 58.5509 28.0298 58.5509Z" fill="white"/>
<path d="M32.9425 57.8644V58.0932H31.0869C31.0869 59.1716 31.4057 59.7516 31.9779 59.7516C32.3049 59.7516 32.591 59.58 32.8362 59.2451V60.1274C32.5092 60.4378 32.1823 60.5767 31.8062 60.5767C30.809 60.5767 30.2041 59.6781 30.2041 57.8808C30.2041 56.1897 30.7109 55.2012 31.5938 55.2012C32.8117 55.2012 32.9425 56.9249 32.9425 57.8563M32.0596 57.4233C32.0596 56.4838 31.9125 55.9854 31.5528 55.9854C31.2177 55.9854 31.0788 56.5165 31.0788 57.3661V57.4233H32.0596Z" fill="white"/>
<path d="M36.6862 56.7781V60.438H35.8034V56.8026C35.8034 56.3614 35.7052 56.0592 35.3292 56.0592C35.0676 56.0592 34.8388 56.2552 34.6426 56.6719V60.4462H33.7598V55.3484H34.6426V55.9039H34.6671C34.9369 55.4546 35.1984 55.2749 35.5908 55.2749C36.2202 55.2749 36.6862 55.7896 36.6862 56.7944" fill="white"/>
<path d="M40.2174 57.8644V58.0932H38.3618C38.3618 59.1716 38.6807 59.7516 39.2529 59.7516C39.5798 59.7516 39.8659 59.58 40.1112 59.2451V60.1274C39.7842 60.4378 39.4572 60.5767 39.0812 60.5767C38.0839 60.5767 37.479 59.6781 37.479 57.8808C37.479 56.1897 37.9858 55.2012 38.8687 55.2012C40.0866 55.2012 40.2174 56.9249 40.2174 57.8563M39.3346 57.4233C39.3346 56.4838 39.1875 55.9854 38.8278 55.9854C38.4845 55.9854 38.3537 56.5165 38.3537 57.3661V57.4233H39.3346Z" fill="white"/>
<path d="M43.6098 52.7505H42.7271V60.438H43.6098V52.7505Z" fill="white"/>
<path d="M47.2562 56.5736V59.4575C47.2562 59.678 47.297 59.7434 47.3951 59.7434C47.436 59.7434 47.5504 59.6781 47.7466 59.4902V60.1682C47.4769 60.446 47.2562 60.5522 47.06 60.5522C46.7739 60.5522 46.4796 60.4297 46.4142 59.9068C46.1199 60.4051 45.7848 60.5767 45.4496 60.5767C44.763 60.5767 44.4688 59.9313 44.4688 59.2859C44.4688 58.6895 44.714 58.3056 45.417 57.8154C45.6785 57.6275 45.9973 57.4396 46.3815 57.2027V56.7207C46.3815 56.2714 46.2098 56.0508 45.8583 56.0508C45.4823 56.0508 45.1227 56.2796 44.5913 56.8923V55.8547C45.1227 55.3564 45.4415 55.2012 45.9238 55.2012C46.7003 55.2012 47.2562 55.6178 47.2562 56.5736ZM45.7684 59.7271C46.0055 59.7271 46.2344 59.4983 46.3815 59.1389V57.8236C45.6785 58.2647 45.3434 58.6732 45.3434 59.147C45.3434 59.482 45.515 59.7189 45.7766 59.7189" fill="white"/>
<path d="M51.3107 56.7781V60.438H50.4279V56.8026C50.4279 56.3614 50.3298 56.0592 49.9537 56.0592C49.6922 56.0592 49.4633 56.2552 49.2671 56.6719V60.4462H48.3843V55.3484H49.2671V55.9039H49.2916C49.5614 55.4546 49.823 55.2749 50.2153 55.2749C50.8447 55.2749 51.3107 55.7896 51.3107 56.7944" fill="white"/>
<path d="M53.3784 55.3403C54.7435 55.3403 55.3811 56.3779 55.3811 57.9627C55.3811 59.5476 54.8008 60.577 53.7381 60.577C53.64 60.577 53.3621 60.528 53.1822 60.4381H53.1577V63.1912H52.2749V55.3403H53.3702H53.3784ZM53.1577 59.6211C53.2967 59.6947 53.5419 59.7273 53.5991 59.7273C54.2122 59.7273 54.4738 59.0983 54.4738 57.9546C54.4738 56.6229 54.0651 56.1981 53.3702 56.1981H53.1659V59.6293L53.1577 59.6211Z" fill="white"/>
<path d="M58.7655 56.5736V59.4575C58.7655 59.678 58.8064 59.7434 58.9045 59.7434C58.9453 59.7434 59.0598 59.6781 59.2559 59.4902V60.1682C58.9862 60.446 58.7655 60.5522 58.5693 60.5522C58.2832 60.5522 57.9889 60.4297 57.9235 59.9068C57.6292 60.4051 57.2859 60.5767 56.959 60.5767C56.2723 60.5767 55.978 59.9313 55.978 59.2859C55.978 58.6895 56.2233 58.3056 56.9263 57.8154C57.1879 57.6275 57.5067 57.4396 57.8908 57.2027V56.7207C57.8908 56.2714 57.7192 56.0508 57.3677 56.0508C56.9917 56.0508 56.632 56.2796 56.1007 56.8923V55.8547C56.632 55.3564 56.9508 55.2012 57.4331 55.2012C58.2096 55.2012 58.7655 55.6178 58.7655 56.5736ZM57.2778 59.7271C57.5148 59.7271 57.7437 59.4983 57.8908 59.1389V57.8236C57.1879 58.2647 56.8527 58.6732 56.8527 59.147C56.8527 59.482 57.0244 59.7189 57.286 59.7189" fill="white"/>
<path d="M62.1 56.3287C61.9528 56.2388 61.8629 56.2061 61.7158 56.2061C61.0455 56.2061 60.8411 57.5051 60.7676 58.4282V60.4461H59.8848V55.3483H60.7676V56.6146H60.7921C61.0864 55.5934 61.2908 55.2666 61.724 55.2666C61.8793 55.2666 62.0264 55.3156 62.1736 55.4137L62.1082 56.3368L62.1 56.3287Z" fill="white"/>
<path d="M63.1632 55.3403L63.8989 58.2568H63.9234L64.6591 55.3403H65.5419L64.0378 60.5524H63.7926L62.2886 55.3403H63.1632Z" fill="white"/>
<path d="M68.9426 57.8971C68.9426 59.58 68.3296 60.5767 67.3732 60.5767C66.4168 60.5767 65.8037 59.5718 65.8037 57.8971C65.8037 56.2223 66.3922 55.2012 67.3732 55.2012C68.3541 55.2012 68.9426 56.2469 68.9426 57.8971ZM67.3814 59.7271C67.7982 59.7271 68.0353 59.098 68.0353 57.8971C68.0353 56.6962 67.7983 56.059 67.3569 56.059C66.9645 56.059 66.7029 56.6308 66.7029 57.8971C66.7029 59.1634 66.9399 59.7271 67.3814 59.7271Z" fill="white"/>
<path d="M70.0869 55.3403L70.8227 58.2568H70.8472L71.5829 55.3403H72.4575L70.9534 60.5524H70.7082L69.2041 55.3403H70.0869Z" fill="white"/>
<path d="M75.4571 57.8644V58.0932H73.6015C73.6015 59.1716 73.9204 59.7516 74.4926 59.7516C74.8195 59.7516 75.1056 59.58 75.3509 59.2451V60.1274C75.0239 60.4378 74.6969 60.5767 74.3209 60.5767C73.3236 60.5767 72.7188 59.6781 72.7188 57.8808C72.7188 56.1897 73.2255 55.2012 74.1083 55.2012C75.3263 55.2012 75.4571 56.9249 75.4571 57.8563M74.5743 57.4233C74.5743 56.4838 74.4272 55.9854 74.0675 55.9854C73.7242 55.9854 73.5934 56.5165 73.5934 57.3661V57.4233H74.5743Z" fill="white"/>
<path d="M78.6777 56.3122C78.4161 56.108 78.1954 56.059 78.0237 56.059C77.378 56.059 76.9938 56.7861 76.9938 57.9135C76.9938 59.0409 77.4025 59.7353 78.1136 59.7353C78.3262 59.7353 78.4896 59.6699 78.7594 59.4493V60.3153C78.457 60.5114 78.1954 60.5931 77.8847 60.5931C76.8711 60.5931 76.0864 59.5147 76.0864 57.9461C76.0864 56.3776 76.8303 55.2175 77.8847 55.2175C78.1545 55.2175 78.3671 55.2747 78.6777 55.4054V56.3286V56.3122Z" fill="white"/>
<path d="M83.0105 57.3335H80.9751V58.2567H83.0105V57.3335Z" fill="white"/>
<path d="M87.3427 55.5036V56.3777C87.0402 56.1244 86.8113 56.0182 86.5824 56.0182C86.3699 56.0182 86.231 56.1653 86.231 56.394C86.231 56.7617 86.4598 57.0966 86.8767 57.6685C87.22 58.1505 87.498 58.657 87.498 59.2534C87.498 60.0131 86.9912 60.5687 86.2964 60.5687C85.9776 60.5687 85.6751 60.4543 85.3154 60.152V59.1635C85.6751 59.5638 85.9122 59.719 86.1901 59.719C86.468 59.719 86.6315 59.5229 86.6315 59.2779C86.6315 58.8857 86.3944 58.5181 85.9612 57.9054C85.577 57.3662 85.3727 56.9251 85.3727 56.3859C85.3727 55.6915 85.8713 55.1931 86.5007 55.1931C86.7705 55.1931 87.0402 55.2585 87.3345 55.4954" fill="white"/>
<path d="M91.193 56.7781V60.438H90.3102V56.8026C90.3102 56.3614 90.2121 56.0592 89.8361 56.0592C89.5745 56.0592 89.3456 56.2552 89.1494 56.6719V60.4462H88.2666V55.3484H89.1494V55.9039H89.1739C89.4437 55.4546 89.7053 55.2749 90.0976 55.2749C90.7271 55.2749 91.193 55.7896 91.193 56.7944" fill="white"/>
<path d="M95.264 55.3403V56.1246H94.5937C94.7817 56.4432 94.8717 56.8517 94.8717 57.3664C94.8717 57.9872 94.7245 58.4447 94.3976 58.8042C94.1523 59.0656 93.9153 59.18 93.4575 59.2535C93.1551 59.3025 93.0079 59.3597 93.0079 59.6211C93.0079 59.8826 93.2205 59.9888 93.5393 60.0623C93.8581 60.1277 94.3731 60.2012 94.7736 60.5361C95.0679 60.7812 95.2477 61.1815 95.2477 61.688C95.2477 62.6112 94.5447 63.2647 93.5066 63.2647C92.5911 63.2647 91.8472 62.6929 91.8472 61.8514C91.8472 61.2877 92.166 60.8302 92.7055 60.5933C92.3213 60.4218 92.1414 60.1767 92.1414 59.8499C92.1414 59.5231 92.3704 59.2127 92.8445 59.0329C92.3131 58.6571 92.0761 58.0771 92.0761 57.2847C92.0761 56.0756 92.6646 55.3485 93.5474 55.3485H95.264V55.3403ZM93.5311 62.4968C94.0379 62.4968 94.4466 62.1782 94.4466 61.7289C94.4466 61.2795 94.0134 60.9201 93.482 60.9201C92.9834 60.9201 92.6482 61.255 92.6482 61.7289C92.6482 62.2027 92.9997 62.4968 93.5311 62.4968ZM93.4902 58.5509C93.8499 58.5509 94.0787 58.0934 94.0787 57.3337C94.0787 56.5249 93.8499 56.0184 93.4902 56.0184C93.1305 56.0184 92.8771 56.4759 92.8771 57.2765C92.8771 58.0771 93.1142 58.5509 93.4902 58.5509Z" fill="white"/>
<path d="M96.7842 52.7505H95.9014V60.438H96.7842V52.7505Z" fill="white"/>
</svg>
