<svg width="134" height="80" viewBox="0 0 134 80" fill="none" xmlns="http://www.w3.org/2000/svg">
<g clip-path="url(#clip0_1269_4740)">
<mask id="mask0_1269_4740" style="mask-type:luminance" maskUnits="userSpaceOnUse" x="0" y="0" width="134" height="80">
<path d="M133.193 0.390503H0.827148V79.0953H133.193V0.390503Z" fill="white"/>
</mask>
<g mask="url(#mask0_1269_4740)">
<path d="M0.883789 60.1715V45.3143C0.883789 44.0096 1.6346 43.2858 2.93659 43.2858C3.63035 43.2858 4.26707 43.6096 4.64721 44.2191L12.4306 56.0286H12.4591V44.7524C12.4591 43.8953 13.0769 43.2572 13.9797 43.2572C14.8065 43.2572 15.4242 43.8763 15.4242 44.7239V59.8477C15.4242 61.0001 14.7875 61.6382 13.6375 61.6382C13.0008 61.6382 12.4686 61.3429 12.0884 60.781L3.90591 48.3048H3.87743V60.1715C3.87743 61.0286 3.21215 61.6667 2.35683 61.6667C1.45399 61.6667 0.893302 61.0286 0.893302 60.1715" fill="#0071D0"/>
<path d="M34.0804 60.1715C34.0804 61.0572 33.4152 61.6667 32.5599 61.6667C31.7616 61.6667 31.0678 61.2667 30.8017 60.2191L29.8134 57.2286H22.7713L21.8114 60.1715C21.5168 61.2381 20.8515 61.6667 20.1008 61.6667C18.9508 61.6667 18.4472 60.6286 18.7988 59.6096L23.8927 45.0477C24.2918 43.8953 25.2042 43.2572 26.4016 43.2572C27.5991 43.2572 28.4543 43.8953 28.8535 45.0477L33.9759 59.5048C34.0519 59.7239 34.0804 60.0096 34.0804 60.1715ZM23.4365 54.5048H29.1386L26.2875 46.4382H26.259L23.4365 54.5048Z" fill="#0071D0"/>
<path d="M40.3711 59.9334L35.3817 45.4286C34.9541 44.2001 35.8379 43.2667 36.8738 43.2667C37.6721 43.2667 38.2613 43.7239 38.5274 44.4953L42.8516 57.4286H42.9561L47.3277 44.362C47.5653 43.6667 48.0975 43.2667 48.8198 43.2667C49.9412 43.2667 50.6065 44.1715 50.2073 45.3239L45.1894 59.9429C44.8188 61.0382 43.9349 61.6762 42.766 61.6762C41.5971 61.6762 40.7417 61.0382 40.3616 59.9429" fill="#0071D0"/>
<path d="M53.1346 60.9238C52.5169 60.6571 52.1748 60.2285 52.1748 59.6381C52.1748 58.9428 52.7355 58.2762 53.5908 58.2762C54.4937 58.2762 55.3775 59.1809 57.6203 59.1809C59.2739 59.1809 60.4428 58.4095 60.4428 56.7524C60.4428 52.9619 52.5264 54.1333 52.5264 48.2C52.5264 44.7809 55.1874 43.0952 58.5516 43.0952C59.7776 43.0952 61.0606 43.3333 62.182 43.7619C62.9803 44.0285 63.2749 44.5143 63.2749 45.0476C63.2749 45.7143 62.7902 46.3524 61.9919 46.3524C61.3267 46.3524 60.3383 45.6857 58.6087 45.6857C57.0121 45.6857 55.8907 46.4571 55.8907 47.9619C55.8907 51.7809 63.8071 50.5524 63.8071 56.4571C63.8071 60.0381 60.9751 61.8857 57.5443 61.8857C56.0807 61.8857 54.3986 61.5619 53.1441 60.9238" fill="#0071D0"/>
<path d="M74.2804 61.9047C69.8328 61.9047 67.1338 59.6856 67.1338 54.8476V44.9047C67.1338 43.9428 67.856 43.2476 68.8159 43.2476C69.7757 43.2476 70.441 43.9428 70.441 44.9047V55.219C70.441 57.9428 71.9045 59.1714 74.4135 59.1714C76.9224 59.1714 78.3289 57.9428 78.3289 55.2666V44.8761C78.3289 43.9428 79.0512 43.2476 80.0111 43.2476C80.9139 43.2476 81.6362 43.9428 81.6362 44.8761V54.838C81.6362 59.4571 78.8611 61.8952 74.2804 61.8952" fill="#0071D0"/>
<path d="M86.1973 60.1715V45.3143C86.1973 44.0096 86.948 43.2858 88.25 43.2858C88.9438 43.2858 89.5805 43.6096 89.9606 44.2191L97.744 56.0286H97.7726V44.7524C97.7726 43.8953 98.3903 43.2572 99.2931 43.2572C100.12 43.2572 100.738 43.8763 100.738 44.7239V59.8477C100.738 61.0001 100.101 61.6382 98.951 61.6382C98.3143 61.6382 97.7821 61.3429 97.4019 60.781L89.2194 48.3048H89.1908V60.1715C89.1908 61.0286 88.5256 61.6667 87.6703 61.6667C86.7675 61.6667 86.2068 61.0286 86.2068 60.1715" fill="#0071D0"/>
<path d="M105.471 59.8286V44.9429C105.471 43.981 106.222 43.2572 107.153 43.2572C108.084 43.2572 108.835 43.981 108.835 44.9429V58.7334H115.478C116.248 58.7334 116.837 59.3239 116.837 60.1239C116.837 60.9239 116.248 61.5143 115.478 61.5143H107.162C106.174 61.5143 105.48 60.8477 105.48 59.8286" fill="#0071D0"/>
<path d="M121.313 43.2572C122.244 43.2572 122.967 43.981 122.967 44.9144V59.981C122.967 60.9429 122.244 61.6667 121.313 61.6667C120.382 61.6667 119.631 60.9429 119.631 59.981V44.9144C119.631 43.981 120.382 43.2572 121.313 43.2572Z" fill="#0071D0"/>
<path d="M100.386 18.2762V18.3143C99.464 18.2477 98.5231 18.2001 97.5823 18.162C94.0565 18.0286 90.5972 18.0858 87.2424 18.3143C87.2234 18.1334 87.2329 17.9524 87.2424 17.7715C87.3755 14.1334 90.4356 11.2953 94.066 11.4381C97.6963 11.581 100.528 14.6381 100.386 18.2762Z" fill="#FF5900"/>
<path d="M84.5154 17.1714C84.3918 17.1714 84.2588 17.1428 84.1352 17.0952L76.5704 14.1428C76.0287 13.9333 75.7626 13.3143 75.9717 12.7714C76.1808 12.2286 76.789 11.9619 77.3402 12.1714L84.905 15.1238C85.4467 15.3333 85.7128 15.9524 85.5037 16.4952C85.3421 16.9143 84.943 17.1714 84.5154 17.1714Z" fill="#FF5900"/>
<path d="M87.5086 12.2952C87.4041 12.219 87.309 12.1333 87.233 12.019L82.6618 5.29522C82.3292 4.8095 82.4623 4.15236 82.9374 3.82855C83.4221 3.49522 84.0778 3.61903 84.4105 4.10474L88.9817 10.8286C89.3143 11.3143 89.1813 11.9714 88.7061 12.2952C88.3355 12.5524 87.8603 12.5333 87.5086 12.2952Z" fill="#FF5900"/>
<path d="M92.7267 9.97146C92.6792 9.85717 92.6602 9.72383 92.6602 9.5905L92.6887 1.45717C92.6887 0.876215 93.1639 0.400024 93.7531 0.400024C94.3328 0.400024 94.808 0.876218 94.808 1.46669L94.7794 9.60003C94.7794 10.181 94.3043 10.6572 93.7245 10.6572C93.2779 10.6572 92.8978 10.3715 92.7457 9.98098" fill="#FF5900"/>
<path d="M98.3333 11.0096C98.3618 10.8858 98.4189 10.762 98.4949 10.6572L103.114 3.9715C103.446 3.48578 104.102 3.3715 104.587 3.70483C105.071 4.03816 105.185 4.69531 104.853 5.18102L100.234 11.8667C99.9014 12.3524 99.2456 12.4667 98.761 12.1334C98.3903 11.8763 98.2382 11.4286 98.3333 11.0191" fill="#FF5900"/>
<path d="M102.372 15.0571C102.467 14.9714 102.581 14.9047 102.705 14.8571L110.288 11.9619C110.83 11.7524 111.448 12.0286 111.647 12.5714C111.857 13.1143 111.581 13.7238 111.039 13.9333L103.455 16.8286C102.914 17.0381 102.296 16.7619 102.096 16.219C101.935 15.8 102.058 15.3428 102.372 15.0571Z" fill="#FF5900"/>
<path d="M22.761 37.6762C44.182 20.0572 84.1919 19.7429 85.5129 19.4096C65.9451 18.2191 32.9202 18.2286 0.883789 37.6096C4.55216 37.6096 17.5815 37.6762 22.761 37.6762Z" fill="#0071D0"/>
<path d="M57.3446 37.6762C76.4942 18.6286 115.497 20.2096 116.827 19.8667C97.2594 18.6762 63.3983 19.3239 36.1611 37.6096C39.8295 37.6096 52.1651 37.6762 57.3446 37.6762Z" fill="#65BF4E"/>
<path d="M128.526 40.5905V41.3143H127.471V44.0571H126.569V41.3143H125.514V40.5905H128.526ZM132.309 44.0571L132.204 42.3047C132.204 41.9714 132.204 41.5809 132.195 41.1238H132.147C132.062 41.5143 131.938 41.9714 131.853 42.3333L131.368 44H130.494L130.047 42.3047C129.98 42 129.895 41.5143 129.8 41.1238H129.752C129.752 41.5333 129.743 41.9428 129.724 42.3047L129.619 44.0571H128.773L129.001 40.5905H130.379L130.779 41.819C130.855 42.0762 130.912 42.3428 130.997 42.819H131.026C131.102 42.4476 131.178 42.1238 131.254 41.819L131.681 40.5905H132.983L133.202 44.0571H132.328H132.309Z" fill="#0071D0"/>
<path d="M4.09637 70.4476C3.76375 70.1905 3.47864 70.1333 3.26957 70.1333C2.45226 70.1333 1.96759 71.0381 1.96759 72.4381C1.96759 73.8381 2.48077 74.7047 3.3836 74.7047C3.65921 74.7047 3.85877 74.619 4.2009 74.3428V75.419C3.81125 75.6571 3.48816 75.7619 3.09851 75.7619C1.81553 75.7619 0.827148 74.419 0.827148 72.4666C0.827148 70.5143 1.76801 69.0762 3.09851 69.0762C3.44064 69.0762 3.71623 69.1428 4.09637 69.3047V70.4476Z" fill="#49585A"/>
<path d="M6.15877 66.0286H5.04688V75.5905H6.15877V66.0286Z" fill="#49585A"/>
<path d="M10.6441 72.3809V72.6667H8.30623C8.30623 74.0095 8.70539 74.7238 9.43716 74.7238C9.84581 74.7238 10.207 74.5047 10.5206 74.0952V75.2C10.1119 75.5905 9.69377 75.7619 9.2186 75.7619C7.96413 75.7619 7.19434 74.6476 7.19434 72.4095C7.19434 70.3047 7.84055 69.0762 8.95247 69.0762C10.492 69.0762 10.6536 71.2286 10.6536 72.3809M9.53223 71.8381C9.53223 70.6666 9.34211 70.0476 8.88594 70.0476C8.45828 70.0476 8.28721 70.7048 8.28721 71.7619V71.8381H9.53223Z" fill="#49585A"/>
<path d="M17.9812 71V75.6H16.8693V71.0857C16.8693 70.4952 16.7268 70.1428 16.2706 70.1428C15.8999 70.1428 15.7004 70.3619 15.3868 70.8857V75.6H14.2749V71.1142C14.2749 70.4857 14.1323 70.1428 13.6571 70.1428C13.315 70.1428 13.0964 70.3904 12.7828 70.9047V75.6H11.6709V69.2571H12.7828V69.9428H12.8113C13.1534 69.3714 13.4861 69.1523 13.9803 69.1523C14.5505 69.1523 14.9211 69.4285 15.2822 70.0952C15.8144 69.3333 16.0805 69.1523 16.5842 69.1523C17.4015 69.1523 17.9812 69.8095 17.9812 71Z" fill="#49585A"/>
<path d="M20.4048 66.5429C20.4048 66.9143 20.1007 67.1905 19.7585 67.1905C19.4164 67.1905 19.1123 66.9143 19.1123 66.5429C19.1123 66.1714 19.3974 65.8953 19.7585 65.8953C20.1197 65.8953 20.4048 66.181 20.4048 66.5429ZM20.3193 75.5905H19.2074V69.2476H20.3193V75.5905Z" fill="#49585A"/>
<path d="M25.2896 66.0286V75.5905H24.0162C22.3721 75.5905 21.3457 74.819 21.3457 72.4381C21.3457 70.4667 22.106 69.1333 23.4175 69.1333C23.6361 69.1333 23.9021 69.1619 24.1777 69.2476V66.0286H25.2896ZM23.9306 74.5619H24.1777V70.2571C23.9877 70.1809 23.7596 70.1428 23.579 70.1428C22.8758 70.1428 22.4956 70.9429 22.4956 72.4762C22.4956 74.0095 22.9423 74.5714 23.9402 74.5714" fill="#49585A"/>
<path d="M28.8155 69.4476V70.5333C28.4259 70.219 28.1407 70.0857 27.8556 70.0857C27.5895 70.0857 27.4184 70.2762 27.4184 70.5619C27.4184 71.019 27.7036 71.4381 28.2358 72.1524C28.6635 72.7524 29.0245 73.3809 29.0245 74.1238C29.0245 75.0666 28.3783 75.7524 27.5135 75.7524C27.1144 75.7524 26.7247 75.6095 26.2686 75.2381V74.0095C26.7247 74.5143 27.0193 74.6952 27.3709 74.6952C27.7226 74.6952 27.9317 74.4476 27.9317 74.1524C27.9317 73.6666 27.6275 73.2095 27.0858 72.4476C26.6012 71.7714 26.3445 71.2286 26.3445 70.5524C26.3445 69.6952 26.9718 69.0667 27.7701 69.0667C28.1122 69.0667 28.4544 69.1524 28.825 69.4381" fill="#49585A"/>
<path d="M33.7283 72.4286C33.7283 74.5143 32.9586 75.7619 31.7421 75.7619C30.5257 75.7619 29.7559 74.5143 29.7559 72.4286C29.7559 70.3428 30.4972 69.0762 31.7421 69.0762C32.9871 69.0762 33.7283 70.3809 33.7283 72.4286ZM31.7611 74.7047C32.2933 74.7047 32.5879 73.9143 32.5879 72.4286C32.5879 70.9428 32.2933 70.1428 31.7326 70.1428C31.2289 70.1428 30.9058 70.8571 30.9058 72.4286C30.9058 74 31.2099 74.7047 31.7611 74.7047Z" fill="#49585A"/>
<path d="M38.4516 69.2477V70.2191H37.6058C37.8529 70.6191 37.9669 71.1239 37.9669 71.762C37.9669 72.5334 37.7769 73.1048 37.3682 73.5524C37.0546 73.8858 36.7505 74.0286 36.1803 74.1144C35.7906 74.1715 35.61 74.2477 35.61 74.5715C35.61 74.8953 35.8761 75.0286 36.2848 75.1143C36.6839 75.2001 37.3397 75.2858 37.8434 75.7048C38.214 76.0096 38.4421 76.5048 38.4421 77.1334C38.4421 78.2763 37.5583 79.0953 36.2468 79.0953C35.0874 79.0953 34.1465 78.381 34.1465 77.3334C34.1465 76.6286 34.5456 76.0572 35.2299 75.7715C34.7452 75.5524 34.5171 75.2572 34.5171 74.8382C34.5171 74.4191 34.8022 74.0477 35.401 73.8191C34.7262 73.3429 34.4316 72.6286 34.4316 71.6382C34.4316 70.1334 35.1729 69.2286 36.2848 69.2286H38.4516V69.2477ZM36.2658 78.1524C36.912 78.1524 37.4252 77.7524 37.4252 77.1905C37.4252 76.6286 36.8835 76.1905 36.2087 76.1905C35.5815 76.1905 35.1539 76.6096 35.1539 77.1905C35.1539 77.7715 35.6005 78.1524 36.2658 78.1524ZM36.2087 73.2477C36.6649 73.2477 36.95 72.6763 36.95 71.7334C36.95 70.7334 36.6649 70.1048 36.2087 70.1048C35.7526 70.1048 35.439 70.6763 35.439 71.6667C35.439 72.6572 35.7431 73.2572 36.2087 73.2572" fill="#49585A"/>
<path d="M42.4244 72.3809V72.6667H40.0865C40.0865 74.0095 40.4857 74.7238 41.2174 74.7238C41.6261 74.7238 41.9872 74.5047 42.3009 74.0952V75.2C41.8922 75.5905 41.474 75.7619 40.9989 75.7619C39.7444 75.7619 38.9746 74.6476 38.9746 72.4095C38.9746 70.3047 39.6208 69.0762 40.7327 69.0762C42.2723 69.0762 42.4339 71.2286 42.4339 72.3809M41.303 71.8381C41.303 70.6666 41.1129 70.0476 40.6568 70.0476C40.2291 70.0476 40.058 70.7048 40.058 71.7619V71.8381H41.303Z" fill="#49585A"/>
<path d="M47.1471 71.0381V75.5904H46.0352V71.0666C46.0352 70.5238 45.9116 70.1333 45.4365 70.1333C45.1038 70.1333 44.8187 70.3809 44.5622 70.8952V75.5904H43.4502V69.2476H44.5622V69.9333H44.5906C44.9328 69.3714 45.2654 69.1428 45.7596 69.1428C46.5579 69.1428 47.1471 69.7904 47.1471 71.0285" fill="#49585A"/>
<path d="M51.5953 72.3809V72.6667H49.2575C49.2575 74.0095 49.6566 74.7238 50.3884 74.7238C50.797 74.7238 51.1581 74.5047 51.4717 74.0952V75.2C51.0631 75.5905 50.6449 75.7619 50.1698 75.7619C48.9153 75.7619 48.1455 74.6476 48.1455 72.4095C48.1455 70.3047 48.7918 69.0762 49.9037 69.0762C51.4433 69.0762 51.6048 71.2286 51.6048 72.3809M50.4834 71.8381C50.4834 70.6666 50.2933 70.0476 49.8372 70.0476C49.4095 70.0476 49.2384 70.7048 49.2384 71.7619V71.8381H50.4834Z" fill="#49585A"/>
<path d="M55.8814 66.0286H54.7695V75.5905H55.8814V66.0286Z" fill="#49585A"/>
<path d="M60.4904 70.7809V74.3714C60.4904 74.6476 60.5474 74.7333 60.6615 74.7333C60.7185 74.7333 60.861 74.6476 61.1081 74.419V75.2666C60.766 75.6095 60.4904 75.7428 60.2338 75.7428C59.8727 75.7428 59.5021 75.5809 59.4165 74.9428C59.0459 75.5619 58.6182 75.7714 58.2 75.7714C57.3257 75.7714 56.9551 74.9714 56.9551 74.1714C56.9551 73.4285 57.2687 72.9524 58.1525 72.3428C58.4852 72.1143 58.8843 71.8666 59.369 71.5809V70.9809C59.369 70.419 59.1599 70.1524 58.7133 70.1524C58.2476 70.1524 57.7819 70.4381 57.1166 71.2V69.9143C57.7914 69.2952 58.1905 69.0952 58.7988 69.0952C59.7871 69.0952 60.4809 69.6095 60.4809 70.8M58.6087 74.7047C58.9128 74.7047 59.1979 74.419 59.3785 73.9714V72.3428C58.4946 72.8857 58.067 73.4 58.067 73.9905C58.067 74.4095 58.2761 74.7047 58.6087 74.7047Z" fill="#49585A"/>
<path d="M65.6031 71.0381V75.5904H64.4912V71.0666C64.4912 70.5238 64.3581 70.1333 63.8925 70.1333C63.5598 70.1333 63.2747 70.3809 63.0181 70.8952V75.5904H61.9062V69.2476H63.0181V69.9333H63.0467C63.3888 69.3714 63.7214 69.1428 64.2156 69.1428C65.0139 69.1428 65.6031 69.7904 65.6031 71.0285" fill="#49585A"/>
<path d="M68.2166 69.2477C69.9463 69.2477 70.7446 70.5334 70.7446 72.5143C70.7446 74.4953 70.0128 75.762 68.6728 75.762C68.5397 75.762 68.1976 75.7048 67.9695 75.5905H67.941V79.0096H66.8291V69.2477H68.2166ZM67.941 74.5715C68.1121 74.6572 68.4257 74.7048 68.5017 74.7048C69.2715 74.7048 69.6041 73.9143 69.6041 72.4953C69.6041 70.8381 69.091 70.3048 68.2071 70.3048H67.9505V74.5715H67.941Z" fill="#49585A"/>
<path d="M75.0217 70.7809V74.3714C75.0217 74.6476 75.0787 74.7333 75.1927 74.7333C75.2498 74.7333 75.3923 74.6476 75.6394 74.419V75.2666C75.2973 75.6095 75.0217 75.7428 74.7651 75.7428C74.4039 75.7428 74.0333 75.5809 73.9478 74.9428C73.5771 75.5619 73.1495 75.7714 72.7313 75.7714C71.857 75.7714 71.4863 74.9714 71.4863 74.1714C71.4863 73.4285 71.8 72.9524 72.6838 72.3428C73.0164 72.1143 73.4156 71.8666 73.9003 71.5809V70.9809C73.9003 70.419 73.6912 70.1524 73.2445 70.1524C72.7788 70.1524 72.3132 70.4381 71.6479 71.2V69.9143C72.3227 69.2952 72.7218 69.0952 73.33 69.0952C74.3184 69.0952 75.0122 69.6095 75.0122 70.8M73.14 74.7047C73.4441 74.7047 73.7292 74.419 73.9098 73.9714V72.3428C73.0259 72.8857 72.5983 73.4 72.5983 73.9905C72.5983 74.4095 72.8074 74.7047 73.14 74.7047Z" fill="#49585A"/>
<path d="M79.2315 70.4762C79.0415 70.3619 78.9274 70.3143 78.7469 70.3143C77.901 70.3143 77.6444 71.9333 77.5494 73.0762V75.5809H76.4375V69.2381H77.5494V70.8095H77.5779C77.9486 69.5333 78.2052 69.1333 78.7469 69.1333C78.9464 69.1333 79.1365 69.1904 79.3171 69.3238L79.2315 70.4666V70.4762Z" fill="#49585A"/>
<path d="M80.5709 69.2477L81.5023 72.8667H81.5308L82.4621 69.2477H83.574L81.6733 75.7334H81.3597L79.459 69.2477H80.5709Z" fill="#49585A"/>
<path d="M87.8699 72.4286C87.8699 74.5143 87.1001 75.7619 85.8837 75.7619C84.6672 75.7619 83.8975 74.5143 83.8975 72.4286C83.8975 70.3428 84.6387 69.0762 85.8837 69.0762C87.1286 69.0762 87.8699 70.3809 87.8699 72.4286ZM85.9027 74.7047C86.4349 74.7047 86.7295 73.9143 86.7295 72.4286C86.7295 70.9428 86.4349 70.1428 85.8742 70.1428C85.3705 70.1428 85.0474 70.8571 85.0474 72.4286C85.0474 74 85.3515 74.7047 85.9027 74.7047Z" fill="#49585A"/>
<path d="M89.315 69.2477L90.2369 72.8667H90.2654L91.1968 69.2477H92.3087L90.408 75.7334H90.0943L88.2031 69.2477H89.315Z" fill="#49585A"/>
<path d="M96.0904 72.3809V72.6667H93.7526C93.7526 74.0095 94.1517 74.7238 94.8835 74.7238C95.2922 74.7238 95.6532 74.5047 95.9669 74.0952V75.2C95.5582 75.5905 95.1401 75.7619 94.6649 75.7619C93.4104 75.7619 92.6406 74.6476 92.6406 72.4095C92.6406 70.3047 93.2869 69.0762 94.3988 69.0762C95.9384 69.0762 96.0999 71.2286 96.0999 72.3809M94.9785 71.8381C94.9785 70.6666 94.7885 70.0476 94.3418 70.0476C93.9141 70.0476 93.7431 70.7048 93.7431 71.7619V71.8381H94.988H94.9785Z" fill="#49585A"/>
<path d="M100.158 70.4476C99.8253 70.1905 99.5402 70.1333 99.3311 70.1333C98.5138 70.1333 98.0291 71.0381 98.0291 72.4381C98.0291 73.8381 98.5423 74.7047 99.4451 74.7047C99.7112 74.7047 99.9203 74.619 100.262 74.3428V75.419C99.8728 75.6571 99.5497 75.7619 99.16 75.7619C97.8771 75.7619 96.8887 74.419 96.8887 72.4666C96.8887 70.5143 97.8295 69.0762 99.16 69.0762C99.5022 69.0762 99.7778 69.1428 100.158 69.3047V70.4476Z" fill="#49585A"/>
<path d="M105.623 71.7239H103.057V72.8667H105.623V71.7239Z" fill="#49585A"/>
<path d="M111.096 69.4476V70.5333C110.707 70.219 110.422 70.0857 110.137 70.0857C109.852 70.0857 109.69 70.2762 109.69 70.5619C109.69 71.019 109.975 71.4381 110.507 72.1524C110.935 72.7524 111.296 73.3809 111.296 74.1238C111.296 75.0666 110.65 75.7524 109.785 75.7524C109.386 75.7524 108.996 75.6095 108.54 75.2381V74.0095C108.996 74.5143 109.291 74.6952 109.642 74.6952C109.994 74.6952 110.203 74.4476 110.203 74.1524C110.203 73.6666 109.899 73.2095 109.357 72.4476C108.873 71.7714 108.616 71.2286 108.616 70.5524C108.616 69.6952 109.243 69.0667 110.042 69.0667C110.384 69.0667 110.726 69.1524 111.096 69.4381" fill="#49585A"/>
<path d="M115.963 71.0381V75.5904H114.851V71.0666C114.851 70.5238 114.718 70.1333 114.252 70.1333C113.919 70.1333 113.634 70.3809 113.378 70.8952V75.5904H112.266V69.2476H113.378V69.9333H113.406C113.748 69.3714 114.081 69.1428 114.575 69.1428C115.373 69.1428 115.963 69.7904 115.963 71.0285" fill="#49585A"/>
<path d="M121.104 69.2477V70.2191H120.258C120.505 70.6191 120.619 71.1239 120.619 71.762C120.619 72.5334 120.429 73.1048 120.02 73.5524C119.707 73.8858 119.403 74.0286 118.833 74.1144C118.443 74.1715 118.262 74.2477 118.262 74.5715C118.262 74.8953 118.528 75.0286 118.937 75.1143C119.336 75.2001 119.992 75.2858 120.496 75.7048C120.866 76.0096 121.094 76.5048 121.094 77.1334C121.094 78.2763 120.211 79.0953 118.899 79.0953C117.74 79.0953 116.799 78.381 116.799 77.3334C116.799 76.6286 117.198 76.0572 117.882 75.7715C117.398 75.5524 117.169 75.2572 117.169 74.8382C117.169 74.4191 117.455 74.0477 118.053 73.8191C117.378 73.3429 117.084 72.6286 117.084 71.6382C117.084 70.1334 117.825 69.2286 118.937 69.2286H121.104V69.2477ZM118.918 78.1524C119.564 78.1524 120.078 77.7524 120.078 77.1905C120.078 76.6286 119.536 76.1905 118.861 76.1905C118.234 76.1905 117.806 76.6096 117.806 77.1905C117.806 77.7715 118.253 78.1524 118.918 78.1524ZM118.861 73.2477C119.317 73.2477 119.602 72.6763 119.602 71.7334C119.602 70.7334 119.317 70.1048 118.861 70.1048C118.405 70.1048 118.091 70.6763 118.091 71.6667C118.091 72.6572 118.395 73.2572 118.861 73.2572" fill="#49585A"/>
<path d="M123.014 66.0286H121.902V75.5905H123.014V66.0286Z" fill="#49585A"/>
</g>
</g>
<defs>
<clipPath id="clip0_1269_4740">
<rect width="134" height="80" fill="white"/>
</clipPath>
</defs>
</svg>
