<svg width="153" height="26" viewBox="0 0 153 26" fill="none" xmlns="http://www.w3.org/2000/svg">
<g clip-path="url(#clip0_1040_3719)">
<path d="M153 21.9738C152.233 22.2755 151.452 22.4384 150.621 22.2996C149.878 22.1741 149.361 21.7549 148.992 21.1141C148.952 21.0474 148.918 20.9753 148.878 20.9085C148.862 20.8792 148.839 20.8525 148.815 20.8204C148.601 21.0313 148.404 21.2289 148.203 21.4212C147.57 22.0272 146.811 22.3423 145.949 22.4224C145.086 22.5025 144.242 22.4544 143.451 22.0513C142.441 21.5333 141.94 20.6629 141.798 19.5549C141.708 18.866 141.74 18.1825 141.985 17.5284C142.301 16.6793 142.958 16.1427 143.747 15.8303C144.873 15.3844 146.036 15.0373 147.183 14.6448C147.454 14.554 147.726 14.4686 147.992 14.3618C148.419 14.1936 148.623 13.9052 148.604 13.4006C148.575 12.5409 148.317 11.8414 147.51 11.4702C146.84 11.1632 146.123 11.2139 145.424 11.3501C144.572 11.5183 143.865 11.9802 143.185 12.629C143.103 12.3033 143.042 12.0389 142.974 11.7773C142.926 11.5931 142.913 11.3848 142.813 11.238C142.626 10.9656 142.773 10.8535 142.969 10.7146C144.047 9.94036 145.231 9.46778 146.552 9.29957C147.531 9.17675 148.493 9.22214 149.427 9.48113C150.603 9.80953 151.629 10.3969 152.101 11.6331C152.436 12.5115 152.401 13.438 152.38 14.3645C152.335 16.164 152.299 17.9636 152.283 19.7631C152.277 20.3238 152.607 20.7003 152.997 20.6843V21.9685L153 21.9738ZM148.625 15.7368C148.586 15.6994 148.549 15.6621 148.509 15.622C148.103 15.7315 147.689 15.8223 147.288 15.9531C146.56 16.1934 145.914 16.5752 145.677 17.3602C145.49 17.9796 145.45 18.623 145.627 19.2799C145.777 19.8405 146.183 20.3932 147.101 20.3665C147.837 20.3452 148.369 19.8245 148.427 19.2558C148.551 18.0891 148.564 16.9089 148.625 15.7368Z" fill="black"/>
<path d="M12.7871 0C19.9388 0.114808 25.6191 5.71637 25.6296 13.0027C25.6428 20.3157 19.8993 26.0107 12.8161 26C5.56152 25.9893 0.218821 20.2409 0.00785585 13.518C-0.242666 5.61758 5.93335 0.0934483 12.7871 0ZM7.99289 19.9419H15.5244C15.5085 19.8404 15.5033 19.7763 15.4874 19.7123C15.0022 17.8059 14.3904 15.9396 13.6283 14.1294C13.5149 13.8597 13.5439 13.7129 13.776 13.574C14.4906 13.1495 15.2343 12.9466 16.0834 13.0774C17.067 13.2296 17.903 13.6595 18.6757 14.2602C19.9599 15.2641 20.9514 16.5297 21.8375 17.886C22.299 18.5909 22.7315 19.3118 23.2246 20.1021C23.2404 19.9259 23.2642 19.8244 23.2536 19.7229C23.1719 18.9994 23.1217 18.2705 22.9899 17.5576C22.8 16.5217 22.6049 15.4804 22.3122 14.4711C21.8823 12.992 21.2626 11.5876 20.4425 10.2766C19.2558 8.37297 17.7949 6.8244 15.5217 6.30109C14.6699 6.10618 13.8261 6.12487 12.998 6.41857C11.9854 6.77634 11.2101 7.45718 10.5667 8.30355C10.4533 8.45307 10.3794 8.50914 10.2133 8.33292C9.72017 7.80427 9.21386 7.2863 8.68644 6.79236C7.56569 5.7404 6.28671 4.94475 4.82314 4.48285C4.4645 4.37071 4.09004 4.31731 3.72348 4.23722C3.70766 4.27192 3.6892 4.30663 3.67338 4.34134C6.94071 9.01643 8.08519 14.2923 7.99553 19.9392L7.99289 19.9419Z" fill="#003F73"/>
<path d="M140.392 21.971H136.115C136.17 21.1887 136.26 20.3957 136.273 19.6001C136.299 17.6857 136.299 15.7687 136.284 13.8544C136.284 13.526 136.17 13.1895 136.075 12.8692C135.817 12.0041 135.152 11.673 134.235 11.7611C133.006 11.8786 132.549 12.8425 132.51 13.7315C132.42 15.8008 132.426 17.8753 132.418 19.9472C132.415 20.6307 132.486 21.3115 132.526 22.0511C132.048 22.0137 131.624 21.9497 131.197 21.9523C130.387 21.9523 129.577 21.9764 128.768 22.0191C128.333 22.0404 128.338 22.0511 128.372 21.6106C128.441 20.7482 128.502 19.8831 128.536 19.0154C128.57 18.137 128.591 17.2586 128.567 16.3801C128.541 15.3682 128.496 14.3563 128.383 13.3524C128.309 12.7009 128.064 12.0655 127.354 11.8519C126.59 11.6223 125.846 11.6837 125.271 12.3271C124.857 12.7917 124.696 13.3925 124.691 13.9932C124.67 16.4389 124.688 18.8846 124.699 21.3302C124.699 21.5412 124.754 21.7494 124.789 21.9737H120.614C120.762 17.854 120.814 13.6968 120.538 9.5237H124.68C124.644 10.0817 124.601 10.6771 124.556 11.3606C124.844 11.0376 125.063 10.7732 125.3 10.5249C126.344 9.43559 127.668 9.1686 129.092 9.26471C129.651 9.30209 130.195 9.4169 130.703 9.70526C131.328 10.0577 131.766 10.5757 132.062 11.2031C132.217 11.5368 132.331 11.4274 132.452 11.2485C132.998 10.4422 133.715 9.83875 134.63 9.55307C135.223 9.36617 135.864 9.26204 136.487 9.25403C137.315 9.24335 138.127 9.43559 138.828 9.93754C139.735 10.5863 140.163 11.5235 140.268 12.6022C140.334 13.2803 140.297 13.9718 140.3 14.6553C140.302 16.3695 140.292 18.0836 140.305 19.795C140.31 20.4144 140.363 21.0312 140.392 21.648C140.397 21.7601 140.392 21.8696 140.392 21.9683V21.971Z" fill="black"/>
<path d="M49.4528 22.0459C49.0599 21.9978 48.7092 21.9204 48.3585 21.9204C47.8627 21.9204 47.3643 21.9685 46.8685 22.0165C46.647 22.0379 46.502 22.0165 46.3385 21.8109C44.9804 20.1369 43.6223 18.4628 42.2194 16.8288C40.3497 14.6501 38.4378 12.5062 36.5444 10.3462C36.4811 10.2741 36.4125 10.2047 36.2728 10.0525C36.286 14.0975 36.1567 18.049 36.576 21.9685H33.8599C34.3873 16.1373 34.2607 10.2447 34.1288 4.31741C34.2422 4.31741 34.3715 4.3014 34.498 4.31741C35.3182 4.43489 36.1357 4.46693 36.9531 4.3094C37.1878 4.26402 37.3382 4.35479 37.4911 4.53902C39.7801 7.27572 42.0743 10.0098 44.3765 12.7331C45.2124 13.7237 46.0774 14.6875 46.9318 15.6594C47.0083 15.7475 47.1032 15.8196 47.2562 15.9611C47.243 12.0336 47.359 8.18885 46.9661 4.3628H49.6955C49.321 10.2127 49.1417 16.0972 49.4555 22.0486L49.4528 22.0459Z" fill="black"/>
<path d="M84.0934 3.24414H88.3971C88.0938 5.87938 88.0648 8.55468 88.0305 11.3314C88.3733 10.9683 88.6291 10.6693 88.9113 10.4023C89.9635 9.41173 91.2266 9.13673 92.619 9.2809C93.5763 9.37969 94.4412 9.67606 95.1269 10.3889C95.707 10.995 96.0314 11.7239 96.0736 12.5676C96.1237 13.5448 96.1685 14.522 96.1764 15.4992C96.1843 16.4204 96.1184 17.3442 96.1237 18.2653C96.1289 19.3573 96.1764 20.4466 96.2028 21.5387C96.2054 21.6828 96.2028 21.8297 96.2028 21.9712H91.9466C91.9703 21.56 91.9993 21.1168 92.0257 20.6736C92.0705 19.9447 92.1259 19.2158 92.1549 18.4842C92.1865 17.6405 92.2287 16.7942 92.1997 15.9531C92.1707 15.056 92.118 14.1536 91.9782 13.2698C91.8305 12.3273 91.3849 11.8441 90.6227 11.7052C89.7921 11.553 88.9139 12.0069 88.521 12.7332C88.2098 13.3099 88.1861 13.948 88.1729 14.5621C88.1333 16.4204 88.1465 18.2786 88.165 20.1396C88.1703 20.6869 88.2494 21.237 88.3232 21.7816C88.3575 22.0433 88.223 22.0353 88.0542 22.0273C87.2447 21.9872 86.4351 21.9258 85.6229 21.9205C85.1165 21.9178 84.6076 21.9979 84.0723 22.0406C84.3966 15.7582 84.2384 9.50785 84.0907 3.24414H84.0934Z" fill="black"/>
<path d="M70.2699 4.35183C70.8897 4.35183 71.5015 4.35183 72.1106 4.35183C73.0204 4.34916 73.9276 4.34382 74.8373 4.34115C75.995 4.33581 77.1553 4.25305 78.3051 4.34115C79.6131 4.44261 80.8736 4.78971 81.8256 5.82031C82.3451 6.381 82.7011 7.03514 82.7775 7.79874C82.8593 8.62109 82.9806 9.46746 82.8725 10.2738C82.651 11.9238 81.7623 13.1547 80.2328 13.8542C79.2254 14.3134 78.1653 14.5377 77.0604 14.535C76.3695 14.535 75.6812 14.527 74.9903 14.5057C74.7345 14.4977 74.6132 14.5457 74.6185 14.8501C74.6448 16.428 74.6396 18.006 74.6686 19.5812C74.6818 20.2888 74.7398 20.9963 74.7925 21.7012C74.811 21.9548 74.7319 22.0376 74.4761 22.0269C73.4555 21.9762 72.435 21.9308 71.4118 21.9175C71.0057 21.9121 70.5969 21.9922 70.1592 22.0349C70.5257 16.1237 70.473 10.2337 70.2699 4.34916V4.35183ZM74.774 6.13269C74.7556 6.20478 74.7398 6.23682 74.7398 6.26886C74.7292 8.35142 74.7213 10.434 74.7055 12.5166C74.7055 12.7275 74.8189 12.7675 74.9771 12.7622C75.3199 12.7515 75.6654 12.7462 76.0082 12.7115C77.0367 12.602 77.7882 12.0813 78.1732 11.1015C78.5978 10.0255 78.5767 8.90944 78.2761 7.81209C78.1152 7.2247 77.7434 6.76013 77.1843 6.45309C76.4169 6.0339 75.6074 6.06594 74.774 6.13269Z" fill="black"/>
<path d="M52.3906 17.5282H52.8653C53.1554 18.1076 53.3479 18.6976 53.7012 19.1622C54.4317 20.1234 55.4813 20.4892 56.6574 20.5185C57.4564 20.5372 58.2133 20.4224 58.8857 19.9418C59.959 19.1729 60.3256 17.133 58.8752 16.2947C58.5139 16.0864 58.1579 15.8648 57.7834 15.6833C56.7075 15.1573 55.5999 14.69 54.5477 14.116C53.3294 13.4512 52.4618 12.4339 52.1427 11.0429C51.9687 10.2819 51.9291 9.49965 52.0557 8.70134C52.1823 7.91904 52.3774 7.17679 52.7967 6.51465C53.4428 5.48938 54.3763 4.81923 55.5156 4.46412C56.5809 4.13038 57.6806 3.98887 58.8013 4.07965C60.1594 4.18912 61.4621 4.50951 62.6541 5.2037C62.7807 5.27846 62.8308 5.32652 62.7569 5.50807C62.4141 6.3411 62.1478 7.19815 62.0476 8.10327C62.037 8.19939 61.8841 8.31953 61.7733 8.35424C61.565 8.41832 61.4226 8.31152 61.3408 8.1006C61.2274 7.81491 61.114 7.52656 60.9585 7.2649C60.4548 6.41052 59.6478 6.0207 58.7169 5.88988C57.9707 5.78308 57.2244 5.85784 56.5255 6.16755C55.8267 6.47727 55.4153 7.02995 55.3257 7.80423C55.2202 8.696 55.5683 9.41421 56.3199 9.84141C57.1901 10.3353 58.1051 10.7492 59.0255 11.147C59.9933 11.5662 61.0006 11.9026 61.805 12.6342C62.8571 13.5927 63.3424 14.7968 63.3766 16.2226C63.4215 17.9501 62.9626 19.4666 61.6836 20.6681C60.8372 21.461 59.8219 21.9203 58.7038 22.1552C57.2903 22.4516 55.8742 22.4276 54.4607 22.1526C53.5958 21.9844 52.7756 21.6613 52.0082 21.2234C51.9239 21.1754 51.8421 21.0018 51.8579 20.903C51.9529 20.3423 52.0953 19.7897 52.1876 19.229C52.2667 18.743 52.301 18.2464 52.3563 17.7551C52.3643 17.6884 52.3774 17.6243 52.3933 17.5309L52.3906 17.5282Z" fill="black"/>
<path d="M109.747 20.468C109.747 20.7937 109.757 21.0741 109.739 21.3544C109.734 21.4345 109.66 21.5413 109.586 21.5813C108.616 22.134 107.598 22.4865 106.456 22.3076C105.673 22.1848 105.116 21.7415 104.779 21.0527C104.615 20.7189 104.523 20.8685 104.399 21.0207C103.84 21.7068 103.152 22.2008 102.281 22.3476C100.876 22.5852 99.5151 22.5585 98.4339 21.4131C97.917 20.8658 97.6586 20.1956 97.6085 19.448C97.5557 18.6818 97.5768 17.9262 97.9539 17.2213C98.3152 16.5431 98.8927 16.1026 99.5625 15.8409C100.699 15.3977 101.87 15.0453 103.025 14.6501C103.326 14.546 103.616 14.4179 103.914 14.3057C104.359 14.1375 104.483 13.8198 104.409 13.3045C104.359 12.944 104.283 12.5756 104.14 12.2472C103.869 11.6251 103.307 11.3741 102.685 11.2994C101.282 11.1338 100.074 11.577 99.0299 12.6397C98.8664 12.0523 98.7187 11.5156 98.5446 10.8855C98.9745 10.6212 99.4491 10.2794 99.9634 10.0204C101.089 9.45441 102.3 9.20878 103.55 9.24883C104.526 9.28087 105.477 9.45708 106.358 9.93234C107.698 10.6532 108.217 11.8414 108.207 13.3018C108.196 14.7409 108.125 16.1827 108.091 17.6218C108.078 18.2199 108.088 18.8153 108.091 19.4133C108.091 19.5602 108.091 19.707 108.109 19.8512C108.199 20.5801 108.639 20.8658 109.328 20.6415C109.452 20.6015 109.57 20.5454 109.752 20.4733L109.747 20.468ZM104.428 15.6994C104.383 15.6727 104.341 15.6487 104.296 15.622C103.885 15.7341 103.468 15.8249 103.067 15.9664C102.35 16.2174 101.704 16.5885 101.49 17.3922C101.35 17.9182 101.298 18.4575 101.382 19.0182C101.506 19.8379 101.989 20.4253 102.97 20.3692C103.595 20.3345 104.164 19.8566 104.217 19.3199C104.333 18.1184 104.365 16.9063 104.428 15.6994Z" fill="black"/>
<path d="M115.488 21.971H111.253C111.279 19.8992 111.332 17.8219 111.326 15.742C111.321 13.6621 111.261 11.5822 111.224 9.52371H115.245C115.198 10.2393 115.145 10.9895 115.087 11.8332C115.417 11.2912 115.675 10.832 115.968 10.3968C116.582 9.49435 117.473 9.19264 118.515 9.23536C118.734 9.24337 118.826 9.33415 118.816 9.57177C118.76 10.7412 118.721 11.908 118.671 13.0774C118.658 13.3951 118.439 13.518 118.172 13.3364C117.753 13.0481 117.31 12.9226 116.798 12.9519C116.234 12.984 115.809 13.2536 115.635 13.7529C115.435 14.3243 115.29 14.9437 115.264 15.5498C115.216 16.6952 115.253 17.846 115.29 18.994C115.316 19.8244 115.403 20.6547 115.459 21.4824C115.469 21.648 115.475 21.8162 115.483 21.9737L115.488 21.971Z" fill="black"/>
<path d="M7.99305 19.9417C8.08535 14.2948 6.94086 9.01896 3.6709 4.34387C3.68672 4.30916 3.70518 4.27446 3.721 4.23975C4.08755 4.31984 4.46466 4.37324 4.82066 4.48538C6.28687 4.94728 7.56321 5.7456 8.68396 6.79489C9.21138 7.28883 9.71506 7.80947 10.2108 8.33545C10.377 8.51167 10.4508 8.4556 10.5642 8.30608C11.2076 7.45704 11.9829 6.77887 12.9956 6.4211C13.8236 6.1274 14.6675 6.10871 15.5192 6.30362C17.7924 6.82426 19.2507 8.3755 20.44 10.2792C21.2575 11.5901 21.8798 12.9945 22.3097 14.4737C22.6024 15.4829 22.7975 16.5242 22.9874 17.5601C23.1193 18.273 23.1694 19.0019 23.2511 19.7255C23.2617 19.8243 23.2379 19.9284 23.2221 20.1046C22.729 19.3143 22.2965 18.5934 21.835 17.8885C20.9463 16.5322 19.9574 15.2667 18.6732 14.2627C17.9031 13.662 17.0672 13.2321 16.0809 13.08C15.2318 12.9491 14.4881 13.1494 13.7735 13.5766C13.5414 13.7154 13.5124 13.8623 13.6258 14.1319C14.3879 15.9421 15.0024 17.8084 15.485 19.7148C15.5008 19.7789 15.5061 19.8456 15.5219 19.9444H7.99041L7.99305 19.9417Z" fill="white"/>
</g>
<defs>
<clipPath id="clip0_1040_3719">
<rect width="153" height="26" fill="white"/>
</clipPath>
</defs>
</svg>
